<svg viewBox="0 0 1416 1024" version="1.1" xmlns="http://www.w3.org/2000/svg">
    <path d="M84.853112 517.657157l418.608685-429.922433c113.137482-113.137482 294.157454-118.794357 407.294937-5.656875l5.656874 5.656875 5.656874 5.656874c113.137482 113.137482 113.137482 299.814329 0 412.951811l-418.608685 429.922433c-113.137482 113.137482-294.157454 118.794357-407.294937 5.656874l-5.656874-5.656874-5.656874-5.656874c-113.137482-113.137482-113.137482-299.814329 0-412.951811z"
          fill="#12D2AC"/>
    <path d="M916.413608 87.734724L1323.708545 512.000283c113.137482 118.794357 113.137482 305.471203 0 424.265559-113.137482 113.137482-294.157454 118.794357-407.294937 5.656874l-5.656874-5.656874L503.461797 512.000283c-113.137482-118.794357-113.137482-305.471203 0-424.265559 107.480608-113.137482 294.157454-113.137482 412.951811 0-5.656874 0-5.656874 0 0 0z"
          fill="#307AF2"/>
    <path d="M916.413608 93.391598l203.647469 203.647468-412.951811 424.265559-412.951812-418.608685 203.647469-203.647468c113.137482-118.794357 299.814329-124.451231 418.608685-5.656874z"
          fill="#0057FE"/>
</svg>