<svg viewBox="0 0 1024 1024" version="1.1" xmlns="http://www.w3.org/2000/svg">
    <path d="M512 0c282.331429 0 512 229.668571 512 512s-229.668571 512-512 512S0 794.331429 0 512 229.668571 0 512 0z m0 73.142857C269.641143 73.142857 73.142857 269.604571 73.142857 512c0 129.828571 56.722286 246.125714 146.285714 326.436571v-79.908571a173.604571 173.604571 0 0 1 173.385143-173.348571h238.372572A173.604571 173.604571 0 0 1 804.571429 758.491429v79.908571c89.563429-80.347429 146.285714-196.608 146.285714-326.436571 0-242.395429-196.498286-438.857143-438.857143-438.857143z m0 128a164.571429 164.571429 0 1 1 0 329.142857 164.571429 164.571429 0 0 1 0-329.142857z"/>
</svg>