<svg viewBox="0 0 1024 1024" version="1.1" xmlns="http://www.w3.org/2000/svg">
    <path d="M864 128h-96a32 32 0 0 0 0 64h96a32 32 0 0 1 32 32v96H128v-96a32 32 0 0 1 32-32h96a32 32 0 0 0 0-64h-96a96.11 96.11 0 0 0-96 96v637a96.11 96.11 0 0 0 96 96h704a96.11 96.11 0 0 0 96-96V224a96.11 96.11 0 0 0-96-96z m0 765H160a32 32 0 0 1-32-32V384h768v477a32 32 0 0 1-32 32z"/>
    <path d="M448 192h128a32 32 0 0 0 0-64H448a32 32 0 0 0 0 64zM352 224a32 32 0 0 0 32-32v-64a32 32 0 0 0-64 0v64a32 32 0 0 0 32 32zM672 224a32 32 0 0 0 32-32v-64a32 32 0 0 0-64 0v64a32 32 0 0 0 32 32zM288 512h-64a32 32 0 0 0 0 64h64a32 32 0 0 0 0-64zM544 512h-64a32 32 0 0 0 0 64h64a32 32 0 0 0 0-64zM800 512h-64a32 32 0 0 0 0 64h64a32 32 0 0 0 0-64zM288 640h-64a32 32 0 0 0 0 64h64a32 32 0 0 0 0-64zM544 640h-64a32 32 0 0 0 0 64h64a32 32 0 0 0 0-64zM800 640h-64a32 32 0 0 0 0 64h64a32 32 0 0 0 0-64zM288 768h-64a32 32 0 0 0 0 64h64a32 32 0 0 0 0-64zM544 768h-64a32 32 0 0 0 0 64h64a32 32 0 0 0 0-64z"/>
</svg>