<svg viewBox="0 0 1024 1024" version="1.1" xmlns="http://www.w3.org/2000/svg">
    <path d="M732.16 546.858667l11.605333-12.373334c20.608-21.376 20.992-46.506667-0.426666-67.84l-10.453334-10.538666c59.605333-52.48 124.117333-57.770667 166.101334-100.138667 58.154667-58.88 43.136-143.616-1.493334-188.586667-44.245333-45.013333-128.981333-58.88-188.586666-1.536-42.794667 41.642667-47.658667 106.496-100.138667 166.144l-10.154667-10.496c-21.333333-21.376-46.848-20.650667-68.266666-0.426666l-12.373334 11.648c-25.088 23.637333-21.333333 46.122667 1.152 68.266666l15.018667 15.36-274.517333 274.517334C138.88 811.946667 186.88 809.344 128 891.093333l38.613333 40.533334c79.146667-58.538667 83.626667-5.632 205.525334-126.762667l276.352-274.517333 15.36 15.36c22.528 22.186667 44.288 25.898667 68.266666 1.152zM254.336 812.373333c-12.373333-13.525333-10.112-26.282667 3.754667-40.106666l315.349333-316.928 36.778667 37.12-316.501334 316.501333c-12.373333 12.373333-27.733333 16.128-39.381333 3.413333z"/>
</svg>