<svg viewBox="0 0 1024 1024" version="1.1" xmlns="http://www.w3.org/2000/svg">
    <path d="M256 138.667v64h-96v106.666h704V202.667h-96v-64h160V928H96V138.667h160z m608 234.666H160V864h704V373.333zM277.333 682.667a42.667 42.667 0 1 1 0 85.333 42.667 42.667 0 0 1 0-85.333z m234.667 0A42.667 42.667 0 1 1 512 768a42.667 42.667 0 0 1 0-85.333z m234.667 0a42.667 42.667 0 1 1 0 85.333 42.667 42.667 0 0 1 0-85.333zM277.333 469.333a42.667 42.667 0 1 1 0 85.334 42.667 42.667 0 0 1 0-85.334z m234.667 0a42.667 42.667 0 1 1 0 85.334 42.667 42.667 0 0 1 0-85.334z m234.667 0a42.667 42.667 0 1 1 0 85.334 42.667 42.667 0 0 1 0-85.334z m-384-384V256h-64V85.333h64z m362.666 0V256h-64V85.333h64z m-106.666 53.334v64H405.333v-64h213.334z"/>
</svg>