<svg viewBox="0 0 1024 1024" version="1.1" xmlns="http://www.w3.org/2000/svg">
    <path d="M891.259 780.895L780.895 891.26h-62.307l172.671-172.671v62.307z m0 81.107v29.257h-29.257l29.257-29.257z m0-224.521L637.481 891.259h-62.308l270.9-270.899h45.186v17.121zM764.966 620.36l-270.9 270.899H431.76L702.659 620.36h62.307z m-143.469 0L350.598 891.259h-62.307l270.9-270.899h62.306z m-143.413 0l-270.9 270.899h-62.307l270.9-270.899h62.307z m-143.414 0L132.74 822.289v-61.712L272.958 620.36h61.766z m-142.82 0l-59.109 59.11v-59.11h59.11z m699.41-408.354L753.804 349.46h-62.307L891.26 149.699v62.307z m0 81.107v56.347h-56.348l56.347-56.347z m-64.15-160.372L610.39 349.46h-62.306l216.72-216.719h62.306z m-143.414 0L466.976 349.46H404.67l216.72-216.719h62.307z m-143.523 0L323.454 349.46h-62.307l216.72-216.719h62.306z m-143.36 0L180.095 349.46h-47.353v-14.898l201.819-201.82h62.308z m-143.414 0L132.741 253.399v-61.71l58.948-58.948h61.764zM24.381 457.819h975.238V512H24.381v-54.18z"/>
</svg>