<svg viewBox="0 0 1024 1024" version="1.1" xmlns="http://www.w3.org/2000/svg">
    <path d="M218.496 245.024L339.2 124.352l60.32 60.32-181.024 181.024-120.64-120.672L158.144 184.64l60.32 60.352z m698.848 32.32H448V192h469.344v85.344zM218.496 522.336l120.704-120.64 60.32 60.32-181.024 181.024-120.64-120.672 60.32-60.352 60.32 60.32zM917.344 576H448v-85.344h469.344V576zM218.496 799.68L339.2 679.04l60.32 60.352-181.024 180.992-120.64-120.64 60.32-60.352 60.32 60.32z m698.848 74.976H448v-85.312h469.344v85.312z"/>
</svg>