<svg viewBox="0 0 1024 1024" version="1.1" xmlns="http://www.w3.org/2000/svg"
  >
    <path d="M665.636571 353.206857A103.277714 103.277714 0 0 0 762.514286 285.074286h148.297143c17.554286 0 32.987429-15.433143 32.987428-34.724572 0-19.273143-15.414857-34.285714-32.987428-34.285714h-147.858286c-14.573714-39.862857-52.717714-68.992-97.28-68.992-44.580571 0-82.724571 29.147429-96.877714 68.992H114.925714c-19.291429 0-34.706286 14.994286-34.706285 34.285714a34.56 34.56 0 0 0 34.706285 34.724572h453.851429a103.277714 103.277714 0 0 0 96.859428 68.132571z m0-52.699428c-27.849143 0-50.139429-22.308571-50.139428-50.578286a49.664 49.664 0 0 1 50.139428-50.139429c28.288 0 50.139429 21.851429 50.139429 50.139429s-21.851429 50.578286-50.139429 50.578286z m-552.411428 177.005714c-17.590857 0-33.005714 15.414857-33.005714 34.706286 0 19.273143 15.414857 34.285714 32.987428 34.285714h153.014857c14.134857 40.283429 52.278857 68.992 96.841143 68.992a103.003429 103.003429 0 0 0 97.28-68.992h448.731429c19.273143 0 34.706286-14.994286 34.706285-34.285714a34.56 34.56 0 0 0-34.706285-34.724572h-448.731429c-14.555429-39.424-52.699429-68.132571-97.28-68.132571-44.141714 0-82.285714 28.708571-96.841143 68.132571z m249.837714 84.845714a49.92 49.92 0 0 1-50.139428-50.139428 49.664 49.664 0 0 1 50.139428-50.139429c28.708571 0 50.157714 21.851429 50.157714 50.139429 0 27.849143-21.430857 50.139429-50.157714 50.139428z m302.573714 314.569143c44.580571 0 82.724571-28.708571 96.859429-68.571429h148.297143c17.554286 0 32.987429-14.994286 32.987428-34.285714 0-19.291429-15.414857-34.706286-32.987428-34.706286h-148.297143a102.692571 102.692571 0 0 0-96.859429-68.150857 102.692571 102.692571 0 0 0-96.859428 68.150857H114.925714a34.56 34.56 0 0 0-34.706285 34.706286c0 19.291429 15.414857 34.285714 34.706285 34.285714h453.851429c14.153143 39.862857 52.297143 68.571429 96.859428 68.571429z m0-52.717714a49.92 49.92 0 0 1-50.139428-50.139429c0-28.708571 22.290286-50.139429 50.139428-50.139428 28.288 0 50.139429 21.430857 50.139429 50.139428a49.664 49.664 0 0 1-50.139429 50.139429z"/>
</svg>