<svg viewBox="0 0 1024 1024" version="1.1" xmlns="http://www.w3.org/2000/svg">
    <path d="M626.518677 467.516472H923.212598c46.346079 0 84.137323-37.976693 84.137323-84.564661V84.564661C1007.349921 37.976693 969.558677 0 923.212598 0H626.518677c-46.346079 0-84.137323 37.976693-84.137323 84.564661v298.169449c0 46.797606 37.791244 84.782362 84.137323 84.782362z m-32.985701-382.951811c0-18.254614 14.81978-33.155024 32.985701-33.155023H923.212598c18.165921 0 32.985701 14.900409 32.985701 33.155023v298.169449c0 18.262677-14.81978 33.163087-32.985701 33.163087H626.518677c-18.165921 0-32.985701-14.900409-32.985701-33.155024V84.564661zM225.433197 49.522898c10.022299 10.070677 10.022299 26.438551 0 36.29959L103.931969 207.944567h356.610015c14.190866 0 25.68063 11.755843 25.68063 25.809638a25.68063 25.68063 0 0 1-25.68063 25.6H103.923906l121.718929 122.130141a25.672567 25.672567 0 0 1 0 36.299591 25.366173 25.366173 0 0 1-18.157859 7.555024 25.366173 25.366173 0 0 1-18.165921-7.555024L24.164787 251.807244a25.672567 25.672567 0 0 1 0-36.307653L189.319055 49.522898a25.366173 25.366173 0 0 1 36.122205 0zM16.650079 937.758236H16.851654V639.580724c0-46.587969 37.791244-84.564661 84.137322-84.564661h296.476221c46.362205 0 84.145386 37.976693 84.145386 84.564661v298.169449c0 46.587969-37.791244 84.572724-84.137323 84.572725H100.787402c-46.346079 0-84.137323-37.976693-84.137323-84.564662z m51.151622-298.177512h0.209638v298.169449c0 18.262677 14.81978 33.163087 32.9857 33.163087h296.476221c18.173984 0 32.993764-14.900409 32.993764-33.155024V639.580724c0-18.254614-14.81978-33.155024-32.985701-33.155023H100.787402c-18.165921 0-32.985701 14.900409-32.985701 33.155023zM563.675717 814.362205a25.720945 25.720945 0 0 1-25.68063-25.801575 25.720945 25.720945 0 0 1 25.68063-25.817701h356.819653l-121.509291-122.122079a25.672567 25.672567 0 0 1 0-36.29959 25.366173 25.366173 0 0 1 36.122204 0l165.146205 165.976693c4.79748 4.829732 7.514709 11.546205 7.514709 18.254614 0 6.934173-2.717228 13.432945-7.514709 18.262677l-165.154268 165.976693a25.366173 25.366173 0 0 1-18.165921 7.555024 25.366173 25.366173 0 0 1-18.165921-7.555024 25.672567 25.672567 0 0 1 0-36.299591L920.285732 814.362205H563.68378z"/>
</svg>