<svg viewBox="0 0 1024 1024" version="1.1" xmlns="http://www.w3.org/2000/svg">
    <path d="M814.682 860.9h-418.9c-68.4 0-132.7-26.6-181-75s-75-112.6-75-181 26.6-132.7 75-181c48.4-48.4 112.6-75 181-75h418.9c12.8 0 23.3 10.4 23.3 23.3s-10.4 23.3-23.3 23.3h-418.9c-115.5 0-209.5 94-209.5 209.5s94 209.5 209.5 209.5h418.9c12.8 0 23.3 10.4 23.3 23.3s-10.5 23.1-23.3 23.1z"/>
    <path d="M699.682 532.2c-6 0-11.9-2.3-16.5-6.8-9.1-9.1-9.1-23.8 0-32.9l123.2-123.2-123.1-123.1c-9.1-9.1-9.1-23.8 0-32.9 9.1-9.1 23.8-9.1 32.9 0l139.6 139.6c9.1 9.1 9.1 23.8 0 32.9l-139.6 139.6c-4.6 4.6-10.5 6.8-16.5 6.8z"/>
</svg>