<svg viewBox="0 0 1024 1024" version="1.1" xmlns="http://www.w3.org/2000/svg">
    <path d="M628.5 860.9h-419c-12.8 0-23.3-10.4-23.3-23.3s10.4-23.3 23.3-23.3h418.9c115.5 0 209.5-94 209.5-209.5s-94-209.5-209.5-209.5H209.5c-12.8 0-23.3-10.4-23.3-23.3s10.4-23.3 23.3-23.3h418.9c68.4 0 132.7 26.6 181 75 48.3 48.4 75 112.6 75 181s-26.6 132.7-75 181c-48.3 48.6-112.6 75.2-180.9 75.2z"/>
    <path d="M324.5 532.2c-6 0-11.9-2.3-16.5-6.8L168.4 385.8c-4.4-4.4-6.8-10.3-6.8-16.5s2.5-12.1 6.8-16.5L308 213.3c9.1-9.1 23.8-9.1 32.9 0 9.1 9.1 9.1 23.8 0 32.9L217.8 369.3 341 492.5c9.1 9.1 9.1 23.8 0 32.9-4.6 4.6-10.6 6.8-16.5 6.8z"/>
</svg>